# xmcd
#
# Track frame offsets:
#	150
#	18972
#	38185
#	58944
#	78324
#	97077
#	115649
#	136297
#	153253
#	171421
#	191386
#	214973
#	239048
#	262343
#	283854
#	307539
#	332603
#
# Disc length: 4775 seconds
#
# Revision: 82681361
# Processed by: cddbd v1.5.1PL0 Copyright (c) Steve Scherf et al.
# Submitted via: EasyCDDAExtractor 8.0.2.1
#
DISCID=f312a511
DTITLE=Johnny Gill - Ultimate Collection
DYEAR=2002
DGENRE=R&B
TTITLE0=Perfect Combination (Featuring Stacy Lattisaw)
TTITLE1=Half Crazy
TTITLE2=Can You Stand The Rain
TTITLE3=Where Do We Go From Here (Featuring Stacy Lattisaw)
TTITLE4=Rub You The Right Way
TTITLE5=My, My, My
TTITLE6=Fairweather Friend
TTITLE7=Wrap My Body Tight
TTITLE8=I'm Still Waiting
TTITLE9=Silent Prayer (Featuring Shanice)
TTITLE10=There U Go
TTITLE11=Slow And Sexy (Featuring Shabba Ranks)
TTITLE12=The Floor
TTITLE13=Quiet Time To Play
TTITLE14=Let's Get The Mood Right
TTITLE15=It's Your Body (Featuring Roger Troutman)
TTITLE16=Maybe
EXTD=YEAR: 2002
EXTT0=
EXTT1=
EXTT2=
EXTT3=
EXTT4=
EXTT5=
EXTT6=
EXTT7=
EXTT8=
EXTT9=
EXTT10=
EXTT11=
EXTT12=
EXTT13=
EXTT14=
EXTT15=
EXTT16=
PLAYORDER=
